/* XPM */
static char * reaper_left_xpm[] = {
"32 32 21 1",
" 	c None",
".	c #FFFFFF",
"+	c #8A4836",
"@	c #D2AA99",
"#	c #8595A1",
"$	c #E0E2E5",
"%	c #757161",
"&	c #4E4A4E",
"*	c #DDDCDA",
"=	c #C7CFDD",
"-	c #891E2B",
";	c #571C27",
">	c #D8D8D8",
",	c #442434",
"'	c #000000",
")	c #131313",
"!	c #F5555D",
"~	c #140C1C",
"{	c #1B1B1B",
"]	c #F6CA9F",
"^	c #B4B4B4",
"       .+                       ",
" @####$$+####%%%###%%%%%%&%%%&& ",
" ##%#*$=++&%%----;;;;&&&&&&%%&& ",
" &%#%>===+%%-------;;;;,&&&&&&, ",
" %%%&*===++----------;;;%&%%&&, ",
" ##%*$====+--'''''----;;;&%%&%& ",
" #%%*=====++'''''''----;;;&&&%& ",
" #%&>=====-+''''''''---;;;&%%%& ",
" #%*>====&-++)))))'''---;;;&%%& ",
" #%*====%%-!+))!!))''---;;;%&%& ",
" @%*===%#%-!++)!!))''---;;;;%&& ",
" @#$===%%&-))+))))))'---;;;;&&& ",
" @$$==%%%&-))++)))))---;;;;;;&& ",
" #$===%&%%--))+)))))---;;;;;;%& ",
" #$===%%%%%-;)++)))---;;;;;;%%& ",
" %*==#%#&%%%;;-+-----;;;;;&&&&& ",
" %*==#%&,%%%%;;++;;-;;;;~&&&&&& ",
" #$=#%%%%%%%%%&;+;---;;~&%&&%&, ",
" #$=%%%%%%&&%%;;++----;&%&&&%&, ",
" #$=%%#%%%&&%&;-;+;--;;;&&%&%&~ ",
" %$=%%%%&&&&&---;++;;;;;;&&&&,~ ",
" #$%%&&%&&%&&---;{+----;;;&&,~~ ",
" #$#%&&%%&%%%----{]]----;;;&~,& ",
" #$%%%%%%&&&%----{]]----;;;~~&% ",
" %*&&&%%%&%&&----{]]+----;;;%%& ",
" %%&%%#%&&&,;----{{{+-----;;;%& ",
" %%&%%#%&&%%;;---{{{++----;;;;& ",
" #%%####&&%%;;----{{{+----;;;;, ",
" ##%%%%%&&%%;;;;;-{{{++-;;;;&,, ",
" %%%###%%&&%#;;;;;{{{{+;;;;&&&& ",
" %%%%%%%%%%%##%^^^&,~,+^^&&,&&, ",
"                ^^     ^^       "};
