/* XPM */
static char * reaper_right_xpm[] = {
"32 32 22 1",
" 	c None",
".	c #8A4836",
"+	c #FFFFFF",
"@	c #D2AA99",
"#	c #8595A1",
"$	c #757161",
"%	c #DDDCDA",
"&	c #D8D8D8",
"*	c #4E4A4E",
"=	c #571C27",
"-	c #891E2B",
";	c #C7CFDD",
">	c #442434",
",	c #000000",
"'	c #131313",
")	c #F5555D",
"!	c #140C1C",
"~	c #D7D5D6",
"{	c #1B1B1B",
"]	c #D5D5D5",
"^	c #F6CA9F",
"/	c #B4B4B4",
"                       .+       ",
" @###########$$$###$$$$.%&$$$** ",
" ##$#$##$**====----***..;&&$$** ",
" *$#$*$$$====-------**.;;;&***> ",
" $$$*$#$===----------..;;;%$**> ",
" ##$$#$===----,,,,,--.;;;;%%*$* ",
" #$$$$===----,,,,,,,..;;;;;&*$* ",
" #$**$===---,,,,,,,,.-;;;;;%$$* ",
" #$$*===---,,,'''''..-*;;;;&%$* ",
" #$$*===---,,''))''.)-**;;;;&$* ",
" @$$====---,,''))'..)-$**;;;%** ",
" @##====---,''''''.''-*!*;;;&** ",
" @#======---'''''..''-****;;~&* ",
" ##======---'''''.''--*$**;;;%* ",
" ###======---'''..'=-*****;;;%* ",
" $$###=====-----.-==$******;;&* ",
" $$###$*====-==..==**>**!**;;&* ",
" ####$$$$==---=.=******!*$**;&> ",
" ###$$$$$=----..==$*$***$***;&> ",
" ###$$#$===--=.=-=$**>>***$*;&! ",
" $#$$$$======..=---*********;~! ",
" ##$$*===----.{=---**$$**$**>]! ",
" ###$===----^^{----*$**>****!~* ",
" ##$$===----^^{----*$**>**>!!&$ ",
" $$*===----.^^{----**>>**>!>$%* ",
" $$===-----.{{{----=****!!>$*$* ",
" $====----..{{{---==***!>*#**** ",
" #====----.{{{----==**!>*#***>> ",
" ##$====-..{{{-=====*>!$#****>> ",
" $$$#====.{{{{=====*>!*#**$**** ",
" $$$$$$//.$$##///**>!>$$***>**> ",
"       //     //                "};
