/* XPM */
static char * player_front_step_xpm[] = {
"32 32 42 1",
" 	c None",
".	c #4D3B39",
"+	c #D2AA99",
"@	c #8595A1",
"#	c #705654",
"$	c #8F7772",
"%	c #757161",
"&	c #4E4A4E",
"*	c #B7A099",
"=	c #442434",
"-	c #EEBE93",
";	c #F1D5A6",
">	c #EFD3A5",
",	c #EFD2A4",
"'	c #D7906E",
")	c #534721",
"!	c #BAB9B6",
"~	c #2E1E22",
"{	c #B4B3B2",
"]	c #ABAAAE",
"^	c #B3B3B3",
"/	c #9D704C",
"(	c #9D9B94",
"_	c #928A8C",
":	c #8C8A8C",
"<	c #8C897E",
"[	c #5C2E00",
"}	c #964F00",
"|	c #125600",
"1	c #509C00",
"2	c #217500",
"3	c #87CB00",
"4	c #140C1C",
"5	c #9F8781",
"6	c #8B5E4A",
"7	c #323234",
"8	c #444444",
"9	c #545456",
"0	c #6D6D6E",
"a	c #B89D92",
"b	c #77584A",
"c	c #A77E5D",
"             . .  .             ",
" +@@@@@@@@.@.#.$..#.%%%%%&%%%&& ",
" @@%@%@@%.#.#$#*$.$#.&.&&&&%%&& ",
" &%@%&.%.#$.$*$*$#*$#.$.&&&&&&= ",
" %%%&.#.#$*#$*#$$$*$#*$#..%%&&= ",
" @@%%.$.#$*#$$#$$#$$$*$#.$.%&%& ",
" @%%.#*$#$$##$$$##$##$#$$#.&&%& ",
" @%&.#$$$#$$$*$#$$#$$#$$$.$.%%& ",
" @%.$.#$#*$#*$#-#$*$*$##$$#.%%& ",
" @%.#$$$#*$#$#---#*#$*#$$$#.&%& ",
" +%%.#$*#$#-#----#$-#$#*$#.%%&& ",
" +@@.##$##--;;;>,,#--#'$##.&&&& ",
" +@.##'$'#)))>>>>,)))-'$'##.=&& ",
" @@@.#'#'-!~{;>>;;]~^-'#'#.=&%& ",
" @@@@.)./-(~_;>;>>_~:-/.).&&%%& ",
" %%@@@.)/-<[[>>;>>[[<-/).&&&&&& ",
" %%@@.##)'-}}>>>,,}}-')||.&&&&& ",
" @@@@%..))'-;;>>>>>-')|11|&&%&= ",
" @@@%%%)/2)/'-----'/)22|||&&%&= ",
" @@@%%)-;21)))))))))21311|%&%&4 ",
" %@%%)5;-'2113333312|21332|&&=4 ",
" @@%)665/782211111228)'-/)&&=44 ",
" @@@)66))789000000098)aa-)&&4=& ",
" @@%%))%%7b890000098b)cc5)=44&% ",
" %%&&&%%%78b66___66b8)cc6)4=%%& ",
" %%&%%@%&788990009988)66b)=%&%& ",
" %%&%%@%&7800988889887)))&@&&&& ",
" @%%@@@@&&80097778887&4=&@&&&== ",
" @@%%%%%&&ba6a)%)b66)=4%@&&&&== ",
" %%%@@@%%&)6ccb%&)))=4&@&&%&&&& ",
" %%%%%%%%%)cccb&&&&=4=%%&&&=&&= ",
"                                "};
