/* XPM */
static char * player_back_step_xpm[] = {
"32 32 29 1",
" 	c None",
".	c #4D3B39",
"+	c #D2AA99",
"@	c #8595A1",
"#	c #705654",
"$	c #8F7772",
"%	c #757161",
"&	c #4E4A4E",
"*	c #B7A099",
"=	c #442434",
"-	c #125600",
";	c #509C00",
">	c #87CB00",
",	c #217500",
"'	c #9D704C",
")	c #534721",
"!	c #EEBE93",
"~	c #FFE1AF",
"{	c #D7906E",
"]	c #140C1C",
"^	c #444444",
"/	c #8B5E4A",
"(	c #9F8781",
"_	c #545456",
":	c #B89D92",
"<	c #A77E5D",
"[	c #323234",
"}	c #6D6D6E",
"|	c #77584A",
"            .  . .              ",
" +@@@@@@@@@.#..$.#.%.%%%%&%%%&& ",
" @@%@%@@.&.#$.$*#$#.#.&&&&&%%&& ",
" &%@%&%.$.#$*#$*$*$.$#.=.&&&&&= ",
" %%%&..#*$#$*$$$$*$#*$#.#.%%&&= ",
" @@%.$.#$$$$$$$$$$$$*$#.$.%%&%& ",
" @%%.#$$#$$#$$#$#$$$$$#$*#.&&%& ",
" @%.$.$*$#$$##$###$$$$$$$#.%%%& ",
" @%.#$#$#$#$$#*$#$$*#$#$#.$.%%& ",
" @%.#$$##*$#$$*$$$*$$$##$$#.&%& ",
" +%%.#$##$*$$$$$#$$$$#*#$#.%%&& ",
" +@@.##$$#$$$#$#$##$#*$###.&&&& ",
" +@.#$$#$$#$$##$$#$$$$##$$#.=&& ",
" @@@.#$$#$$$$$#$$$$$$##$$#.=&%& ",
" @@@@.#$##$#$$$$$#$$$#$$#.&&%%& ",
" %%@@@.######$#$$##$####.&&&&&& ",
" %%@@.##########$########.&&&&& ",
" @@@-;....##.#####.##....%&&%&= ",
" @@@%--->,..#.###.#..,')%&&&%&= ",
" @@@%%-,;;,-.,...,.,;!~{)&%&%&] ",
" %@%%%)-,,-,;>>>>>;,^{~~{)&&&=] ",
" @@%%)/(()^_,;;;;;,_^){~:()&=]] ",
" @@@%)/</[^_}}}}}}}_^)':<</)]=& ",
" @@%%%)//[|^_}}}}}_^|[)/<</)]&% ",
" %%&&&%))[^|///////|^[=)//|)%%& ",
" %%&%%@%&[^_}}}_}}}_^[&&)))%&%& ",
" %%&%%@%&[^_}_^^^^__^[&]=&@&&&& ",
" @%%@@@@&&^_}}[[[___[&]=&@&&&== ",
" @@%%%%%&&)(::)%)///)=]%@&&&&== ",
" %%%@@@%%&)/<<|%&)))=]&@&&%&&&& ",
" %%%%%%%%%)<<<|&&&&=]=%%&&&=&&= ",
"                                "};
