/* XPM */
static char * palyer_exitleft_xpm[] = {
"32 32 44 1",
" 	c None",
".	c #4D3B39",
"+	c #4E4A4E",
"@	c #705654",
"#	c #8F7772",
"$	c #6A5453",
"%	c #89736E",
"&	c #140C1C",
"*	c #B7A099",
"=	c #346524",
"-	c #442434",
";	c #757161",
">	c #9D704C",
",	c #D7906E",
"'	c #EEBE93",
")	c #534721",
"!	c #FFE1AF",
"~	c #D9D9DD",
"{	c #2E1E22",
"]	c #D9D9D9",
"^	c #928A8C",
"/	c #E9E9E9",
"(	c #5C2E00",
"_	c #DBDCE0",
":	c #964F00",
"<	c #125402",
"[	c #17560A",
"}	c #509C00",
"|	c #217500",
"1	c #87CB00",
"2	c #165504",
"3	c #545456",
"4	c #323234",
"5	c #444444",
"6	c #6D6D6E",
"7	c #8B5E4A",
"8	c #B89D92",
"9	c #9F8781",
"0	c #A77E5D",
"a	c #6DC2CA",
"b	c #77584A",
"c	c #D2AA99",
"d	c #8595A1",
"e	c #DEEED6",
"              .      ..         ",
" +++++++.@#$..@#%$...@@.+++++++ ",
" +&&&&&.@*#.@#*#@.@####.&&&&&+= ",
" +&&--&.#*@##*#@.@@@###@.--&&+; ",
" +&-++.@##@###@#**##@##@.++-++; ",
" +&-+.@@@@#@#@#####@@@@@..+-++; ",
" +&&.@#@##@##@@@#@#**##@.@.&&+; ",
" +&&.@#@######@#@#####@.##.&&+; ",
" +&&.##>@#*@#*@##@##@@###@.&&+; ",
" +&&.@#,'@*@@#*@*#@###@#@@.&&+; ",
" +&&+.@''@#@'@#@#*@#**#@@.+&&+; ",
" +&&--)'''@!!!@@@#@##@@..--&&+; ",
" +&-++)''!)))!##@@.@@@@@@.+-++; ",
" +&-++)'!!~{]!##@'!@###@.++-++; ",
" +&&--)'!!^{/!!#'>!@##@..--&&+; ",
" +&&&&),!!((_!!#!>'@#@.@@.&&&+; ",
" +&&++)>'!::!!!#',)@@@@@.++&&+; ",
" +&&++&),'!!!!!',,>@@@..&++&&+; ",
" +&&--&&)>,,''',,>@@..<&&--&&+; ",
" +&-++-+[))))))))}..}}|[-++-++; ",
" +&-++-+[|}111}}|2|}}|[+-++-++; ",
" +&&--&&<||}}}|3!!,|<<&&&--&&+; ",
" +&&&&&&&4566663!!,)&&&&&&&&&+; ",
" +&&++&&&453663),'')&&&&&++&&+; ",
" +&&++&&&4^7777)889)&&&&&++&&+; ",
" +&&--&&&453633)007)&&&&&--&&+; ",
" +&-++-++&45363)007)-++&-++-++; ",
" +&-++-++&-45663)))+-++&-++-++; ",
" +&&--&&&&&-)7889)--&&&&&--&&+a ",
" +++++++++++)707b)+++++++++++=c ",
" +=;;;;;;;;;)007b);;;;;;;;;dace ",
"             ))))               "};
