/* XPM */
static char * palyer_exitfront_xpm[] = {
"32 32 42 1",
" 	c None",
".	c #4D3B39",
"+	c #4E4A4E",
"@	c #705654",
"#	c #8F7772",
"$	c #140C1C",
"%	c #B7A099",
"&	c #346524",
"*	c #442434",
"=	c #757161",
"-	c #EEBE93",
";	c #FFE1AF",
">	c #D7906E",
",	c #534721",
"'	c #D9D9D9",
")	c #2E1E22",
"!	c #D9D9DD",
"~	c #9D704C",
"{	c #E9E9E9",
"]	c #928A8C",
"^	c #DADADB",
"/	c #5C2E00",
"(	c #964F00",
"_	c #165504",
":	c #125402",
"<	c #509C00",
"[	c #217500",
"}	c #17560A",
"|	c #87CB00",
"1	c #444444",
"2	c #9F8781",
"3	c #545456",
"4	c #6D6D6E",
"5	c #8B5E4A",
"6	c #A77E5D",
"7	c #B89D92",
"8	c #323234",
"9	c #77584A",
"0	c #6DC2CA",
"a	c #D2AA99",
"b	c #8595A1",
"c	c #DEEED6",
"             . .  .             ",
" +++++++++.+.@.#..@.+++++++++++ ",
" +$$$$$$$.@.@#@%#.#@.$.$$$$$$+& ",
" +$$**.$.@#.#%#%#@%#@.#.$**$$+= ",
" +$*+.@.@#%@#%@###%#@%#@..+*++= ",
" +$*+.#.@#%@##@##@###%#@.#.*++= ",
" +$$.@%#@##@@###@@#@@#@##@.$$+= ",
" +$$.@###@###%#@##@##@###.#.$+= ",
" +$.#.@#@%#@%#@-@#%#%#@@##@.$+= ",
" +$.@###@%#@#@---@%@#%@###@.$+= ",
" +$$.@#%@#@-@----@#-@#@%#@.$$+= ",
" +$$.@@#@@--;;;;;;@--@>#@@.$$+= ",
" +$.@@>#>@,,,;;;;;,,,->#>@@.++= ",
" +$*.@>@>-')!;;;;;!)'->@>@.*++= ",
" +$$*.,.~-{)];;;;;]){-~.,.*$$+= ",
" +$$$$.,~-^//;;;;;//^-~,.$$$$+= ",
" +$$+.@@,>-((;;;;;((->,_:.+$$+= ",
" +$$++..,,>-;;;;;;;->,:<[}+$$+= ",
" +$$**$,~[,~>----->~,[[::_*$$+= ",
" +$*++,~;[<,,,,,,,,,[<||<[}*++= ",
" +$*++,;->[<<|||||<[_[<<[}+*++= ",
" +$$*,~->,1[[<<<<<[[1,>-~,*$$+= ",
" +$$$,2-~,13344444331,~-2,$$$+= ",
" +$$,567,8913444443198,765,$$+= ",
" +$$,665,81955]]]55918,566,$$+= ",
" +$$,55,$8113344433118$,55,$$+= ",
" +$*+,,++8133111113318+$,,+*++= ",
" +$*++*++$83438883438++$*++*++= ",
" +$$**$$$$,252,$,252,$$$$**$$+0 ",
" +++++++++,559,+,955,++++++++&a ",
" +&=======,665,=,566,======b0ac ",
"           ,,,   ,,,            "};
