/* XPM */
static char * palyer_exitright_xpm[] = {
"32 32 52 1",
" 	c None",
".	c #4D3B39",
"+	c #4E4A4E",
"@	c #705654",
"#	c #8F7772",
"$	c #140C1C",
"%	c #B7A099",
"&	c #346524",
"*	c #442434",
"=	c #757161",
"-	c #9D704C",
";	c #EEBE93",
">	c #D7906E",
",	c #DFC499",
"'	c #E0C59A",
")	c #534721",
"!	c #E5CB9F",
"~	c #D3D3D2",
"{	c #2E1E22",
"]	c #CAC9CD",
"^	c #E1C79C",
"/	c #A9A4A6",
"(	c #928A8C",
"_	c #73748F",
":	c #52303D",
"<	c #4E270C",
"[	c #854E2A",
"}	c #7F430C",
"|	c #3B5039",
"1	c #487436",
"2	c #2F651A",
"3	c #586547",
"4	c #5D9136",
"5	c #77AD1A",
"6	c #82B636",
"7	c #4D851A",
"8	c #133C12",
"9	c #545456",
"0	c #1E630C",
"a	c #44840C",
"b	c #6D6D6E",
"c	c #444444",
"d	c #323234",
"e	c #9F8781",
"f	c #B89D92",
"g	c #8B5E4A",
"h	c #A77E5D",
"i	c #6DC2CA",
"j	c #77584A",
"k	c #D2AA99",
"l	c #8595A1",
"m	c #DEEED6",
"        ..   .     ...          ",
" ++++++.@@...@##@..@#@.++++++++ ",
" +$$$$$.####@.@#%#@.#%@.$$$$$+& ",
" +$$**.@###@@@.@#%##@%#.$**$$+= ",
" +$*++.@##@##%%#@###@##@.++*++= ",
" +$*+..@@@@@#####@#@#@@@@.+*++= ",
" +$$.@.@##%%#@#@@@##@##@#@.$$+= ",
" +$$.##.@#####@#@######@#@.$$+= ",
" +$$.@###@@##@##@%#@%#@-##.$$+= ",
" +$$.@@#@###@#%@%#@@%@;>#@.$$+= ",
" +$$+.@@#%%#@%#@#@;@#@;;@.+$$+= ",
" +$$**..@@##@#@@@,''@;;;)**$$+= ",
" +$*+.@@@@@@.@@##')))!;;)++*++= ",
" +$*++.@###@!;@##'~{]!^;)++*++= ",
" +$$**..@##@'-;#,,/{(,,;)**$$+= ",
" +$$$.@@.@#@;-,#,,_:<,,>)$$$$+= ",
" +$$++.@@@@@)>;#',^[}';-)++$$+= ",
" +$$++$..@@@->>;,,^^,;>)$++$$+= ",
" +$$**$$$..@@->>;;;>>-)$$**$$+= ",
" +$*++*+|12..)))))))))|+*++*++= ",
" +$*++*++3213214456671|+*++*++= ",
" +$$**$$$$8)>,,90a77008$$**$$+= ",
" +$$$$$$$$$)>,,9bbbbcd$$$$$$$+= ",
" +$$++$$$$$);;>)9bb9cd$$$++$$+= ",
" +$$++$$$$$)eff)gggg(d$$$++$$+= ",
" +$$**$$$$$)ghh)99b9cd$$$**$$+= ",
" +$*++*++$*)ghh)9b9cd++$*++*++= ",
" +$*++*++$*+)))9bbcd*++$*++*++= ",
" +$$**$$$$$**)effg)*$$$$$**$$+i ",
" ++++++++++++)jghg)++++++++++&k ",
" +&==========)jghh)========likm ",
"              ))))              "};
