/* XPM */
static char * player_right_xpm[] = {
"32 32 38 1",
" 	c None",
".	c #4D3B39",
"+	c #D2AA99",
"@	c #8595A1",
"#	c #705654",
"$	c #8F7772",
"%	c #757161",
"&	c #4E4A4E",
"*	c #B7A099",
"=	c #442434",
"-	c #9D704C",
";	c #EEBE93",
">	c #D7906E",
",	c #FFE1AF",
"'	c #534721",
")	c #D9D9D9",
"!	c #2E1E22",
"~	c #D9D9DD",
"{	c #F2F2F2",
"]	c #928A8C",
"^	c #FFFFFF",
"/	c #5C2E00",
"(	c #964F00",
"_	c #125600",
":	c #217500",
"<	c #140C1C",
"[	c #8A816C",
"}	c #509C00",
"|	c #87CB00",
"1	c #545456",
"2	c #6D6D6E",
"3	c #444444",
"4	c #323234",
"5	c #9F8781",
"6	c #B89D92",
"7	c #8B5E4A",
"8	c #A77E5D",
"9	c #77584A",
"        ..   ..    ...          ",
" +@@@@@.##...#$$#..#$#.%%&%%%&& ",
" @@%@%@.$$$$#.#$*$#.$*#.&&&%%&& ",
" &%@%&.#$$$###.#$*$$#*$.&&&&&&= ",
" %%%&%.#$$#$$**$#$$$#$$#.&%%&&= ",
" @@%%..#####$$$$$#$#$####.%%&%& ",
" @%%.#.#$$**$#$###$$#$$#$#.&&%& ",
" @%&.$$.#$$$$$#$#$$$$$$#$#.%%%& ",
" @%%.#$$$##$$#$$#*$#*$#-$$.&%%& ",
" @%%.##$#$$$#$*#*$##*#;>$#.%&%& ",
" +%%%.##$**$#*$#$#;#$#;;#.&%%&& ",
" +@@%%..##$$#$###,,,#;;;'&&&&&& ",
" +@@%.######.##$$,''',;;'&&==&& ",
" @@@%%.#$$$#,;#$$,)!~,,;'&&=&%& ",
" @@@@%..#$$#,-;$,,{!],,;'&&&%%& ",
" %%@@.##.#$#;-,$,,^//,,>'&&&&&& ",
" %%@@@.#####'>;$,,,((,;-'&&&&&& ",
" @@@@%%..###->>;,,,,,;>'&%&&%&= ",
" @@@%%%%%..##->>;;;>>-'&%&&&%&= ",
" @@@%%@%_::..'''''''''_&&&%&%&< ",
" %@%%%%[&_::_::}}|||}:_&&&&&&=< ",
" @@%%&&%&&_'>,,1:}}}::_&&%&&=<< ",
" @@@%&&%%&%'>,,1222234&=&&&&<=& ",
" @@%%%%%%&&';;>'122134&=&&=<<&% ",
" %%&&&%%%&%'566'7777]4=&&=<=%%& ",
" %%&%%@%&&&'788'112134&&<<=%&%& ",
" %%&%%@%&&%'788'12134&&<=&@&&&& ",
" @%%@@@@&&%%'''12234&&<=&@&&&== ",
" @@%%%%%&&%%%'5667'&&=<%@&&&&== ",
" %%%@@@%%&&%@'9787'&=<&@&&%&&&& ",
" %%%%%%%%%%%@'9788'=<=%%&&&=&&= ",
"              ''''              "};
