/* XPM */
static char * palyer_exitback_xpm[] = {
"32 32 34 1",
" 	c None",
".	c #4D3B39",
"+	c #4E4A4E",
"@	c #705654",
"#	c #8F7772",
"$	c #140C1C",
"%	c #B7A099",
"&	c #346524",
"*	c #442434",
"=	c #757161",
"-	c #125600",
";	c #217500",
">	c #9D704C",
",	c #534721",
"'	c #509C00",
")	c #87CB00",
"!	c #E9BB91",
"~	c #D9C098",
"{	c #444444",
"]	c #D7906E",
"^	c #E9BA90",
"/	c #E8B98F",
"(	c #545456",
"_	c #9F8781",
":	c #6D6D6E",
"<	c #8B5E4A",
"[	c #A77E5D",
"}	c #B89D92",
"|	c #323234",
"1	c #77584A",
"2	c #6DC2CA",
"3	c #D2AA99",
"4	c #8595A1",
"5	c #DEEED6",
"            .    .              ",
" ++++++++++.@..#.@.+.++++++++++ ",
" +$$$$$$.$.@#.#%@#@.@.$$$$$$$+& ",
" +$$**$.#.@#%@#%#%#.#@.$.**$$+= ",
" +$*+..@%#@#%####%#@%#@.@.+*++= ",
" +$*.#.@############%#@.#.+*++= ",
" +$$.@##@##@##@#@#####@#%@.$$+= ",
" +$.#.#%#@##@@#@@@#######@.$$+= ",
" +$.@#@#@#@##@%#@##%@#@#@.#.$+= ",
" +$.@##@@%#@##%###%###@@##@.$+= ",
" +$$.@#@@#%#####@####@%@#@.$$+= ",
" +$$.@@##@###@#@#@@#@%#@@@.$$+= ",
" +$.@##@##@##@@##@####@@##@.++= ",
" +$*.@##@#####@######@@##@.*++= ",
" +$$*.@#@@#@#####@###@##@.*$$+= ",
" +$$$$.@@@@@@#@##@@#@@@@.$$$$+= ",
" +$$+.@@@@@@@@@@#@@@@@@@@.+$$+= ",
" +$$-;....@@.@@@@@.@@....++$$+= ",
" +$$*-;-;;..@.@@@.@..;>,$**$$+= ",
" +$*++-')';-.;...;.;'!~>,++*++= ",
" +$*++,-;;-;')))))';{]^~,++*++= ",
" +$$*,>/],{(;''''';({,]/>,*$$+= ",
" +$$$,_/>,{(:::::::({,>/_,$$$+= ",
" +$$,<[},|1{(:::::({1|,}[<,$$+= ",
" +$$,[[<,|{1<<<<<<<1{|,<[[,$$+= ",
" +$$,<<,$|{(:::(:::({|$,<<,$$+= ",
" +$*+,,++|{(({{{{{(({|+$,,+*++= ",
" +$*++*++$|::(|||(::|++$*++*++= ",
" +$$**$$$$,}}_,$,_}},$$$$**$$+2 ",
" +++++++++,<[1,+,1[<,++++++++&3 ",
" +&=======,[[<,=,<[[,======4235 ",
"           ,,,   ,,,            "};
