/* XPM */
static char * player_left_step_xpm[] = {
"32 32 38 1",
" 	c None",
".	c #4D3B39",
"+	c #D2AA99",
"@	c #8595A1",
"#	c #705654",
"$	c #8F7772",
"%	c #757161",
"&	c #4E4A4E",
"*	c #B7A099",
"=	c #442434",
"-	c #9D704C",
";	c #D7906E",
">	c #EEBE93",
",	c #534721",
"'	c #FFE1AF",
")	c #D9D9DD",
"!	c #2E1E22",
"~	c #D9D9D9",
"{	c #928A8C",
"]	c #F2F2F2",
"^	c #5C2E00",
"/	c #FFFFFF",
"(	c #964F00",
"_	c #125600",
":	c #509C00",
"<	c #217500",
"[	c #140C1C",
"}	c #8A816C",
"|	c #87CB00",
"1	c #6D6D6E",
"2	c #545456",
"3	c #323234",
"4	c #444444",
"5	c #B89D92",
"6	c #8B5E4A",
"7	c #A77E5D",
"8	c #9F8781",
"9	c #77584A",
"         ...  ....   ..         ",
" +@@@@@@.#$#..#$$#...##.%&%%%&& ",
" @@%@%@.#*$.#$*$#.#$$$$.&&&%%&& ",
" &%@%&%.$*#$$*$#.###$$$#.&&&&&= ",
" %%%&%.#$$#$$$#$**$$#$$#.&%%&&= ",
" @@%%.####$#$#$$$$$#####..%%&%& ",
" @%%.#$#$$#$$###$#$**$$#.#.&&%& ",
" @%&.#$#$$$$$$#$#$$$$$#.$$.%%%& ",
" @%%.$$-#$*#$*#$$#$$##$$$#.&%%& ",
" @%%.#$;>#*##$*#*$#$$$#$##.%&%& ",
" +%%%.#>>#$#>#$#$*#$**$##.&%%&& ",
" +@@%%,>>>#'''###$#$$##..&&&&&& ",
" +@@%%,>>',,,'$$##.######.&==&& ",
" @@@%%,>'')!~'$$#>'#$$$#.&&=&%& ",
" @@@@%,>''{!]''$>-'#$$#..&&&%%& ",
" %%@@@,;''^^/''$'->#$#.##.&&&&& ",
" %%@@@,->'(('''$>;,#####.&&&&&& ",
" @@@@%%,;>'''''>;;-###..&%&&%&= ",
" @@@%%%%,-;;>>>;;-##..&&%&&&%&= ",
" @@@%%@%_,,,,,,,,:..:<_&&&%&%&[ ",
" %@%%%%}_<:|||::<_:|::<_&&&&&=[ ",
" @@%%&&%_<<:::12';_<<__&&%&&=[[ ",
" @@@%&&%%34111,''>,__&&=&&&&[=& ",
" @@%%%%%%3421,55>;,&%&&=&&=[[&% ",
" %%&&&%%%3{6,7768-,&&==&&=[=%%& ",
" %%&%%@%&342,7776,3&&&&&[[=%&%& ",
" %%&%%@%&344,666,23&&&&[=&@&&&& ",
" @%%@@@@,6844,,,89,%&&[=&@&&&== ",
" @@%%%%%,666,356779,&=[%@&&&&== ",
" %%%@@@%%,,,@@,7776,=[&@&&%&&&& ",
" %%%%%%%%%%%@@%,,,,=[=%%&&&=&&= ",
"                                "};
