/* XPM */
static char * player_front_xpm[] = {
"32 32 37 1",
" 	c None",
".	c #4D3B39",
"+	c #D2AA99",
"@	c #8595A1",
"#	c #705654",
"$	c #8F7772",
"%	c #757161",
"&	c #4E4A4E",
"*	c #B7A099",
"=	c #442434",
"-	c #EEBE93",
";	c #FFE1AF",
">	c #D7906E",
",	c #534721",
"'	c #D9D9D9",
")	c #2E1E22",
"!	c #D9D9DD",
"~	c #9D704C",
"{	c #F2F2F2",
"]	c #928A8C",
"^	c #FFFFFF",
"/	c #5C2E00",
"(	c #964F00",
"_	c #125600",
":	c #509C00",
"<	c #217500",
"[	c #87CB00",
"}	c #140C1C",
"|	c #444444",
"1	c #9F8781",
"2	c #545456",
"3	c #6D6D6E",
"4	c #8B5E4A",
"5	c #A77E5D",
"6	c #B89D92",
"7	c #323234",
"8	c #77584A",
"             . .  .             ",
" +@@@@@@@@.@.#.$..#.%%%%%&%%%&& ",
" @@%@%@@%.#.#$#*$.$#.&.&&&&%%&& ",
" &%@%&.%.#$.$*$*$#*$#.$.&&&&&&= ",
" %%%&.#.#$*#$*#$$$*$#*$#..%%&&= ",
" @@%%.$.#$*#$$#$$#$$$*$#.$.%&%& ",
" @%%.#*$#$$##$$$##$##$#$$#.&&%& ",
" @%&.#$$$#$$$*$#$$#$$#$$$.$.%%& ",
" @%.$.#$#*$#*$#-#$*$*$##$$#.%%& ",
" @%.#$$$#*$#$#---#*#$*#$$$#.&%& ",
" +%%.#$*#$#-#----#$-#$#*$#.%%&& ",
" +@@.##$##--;;;;;;#--#>$##.&&&& ",
" +@.##>$>#,,,;;;;;,,,->$>##.=&& ",
" @@@.#>#>-')!;;;;;!)'->#>#.=&%& ",
" @@@@.,.~-{)];;;;;]){-~.,.&&%%& ",
" %%@@@.,~-^//;;;;;//^-~,.&&&&&& ",
" %%@@.##,>-((;;;;;((->,__.&&&&& ",
" @@@@%..,,>-;;;;;;;->,_:<_&&%&= ",
" @@@%%%,~<,~>----->~,<<___&&%&= ",
" @@@%%,~;<:,,,,,,,,,<:[[:<_&%&} ",
" %@%%%,;-><::[[[[[:<_<::<_&&&=} ",
" @@%%,~->,|<<:::::<<|,>-~,&&=}} ",
" @@@%,1-~,|223333322|,~-1,&&}=& ",
" @@%,456,78|2333332|87,654,}}&% ",
" %%&,554,7|844]]]448|7,455,=%%& ",
" %%&,44,&7||2233322||7&,44,%&%& ",
" %%&%,,%&7|22|||||22|7&},,@&&&& ",
" @%%@@@@&&72327772327&}=&@&&&== ",
" @@%%%%%&&,141,%,141,=}%@&&&&== ",
" %%%@@@%%&,448,%,844,}&@&&%&&&& ",
" %%%%%%%%%,554,&,455,=%%&&&=&&= ",
"           ,,,   ,,,            "};
