/* XPM */
static char * player_left_xpm[] = {
"32 32 42 1",
" 	c None",
".	c #4D3B39",
"+	c #D2AA99",
"@	c #8595A1",
"#	c #705654",
"$	c #8F7772",
"%	c #757161",
"&	c #4E4A4E",
"*	c #B7A099",
"=	c #442434",
"-	c #9D704C",
";	c #D7906E",
">	c #EEBE93",
",	c #534721",
"'	c #FFE1AF",
")	c #D9D9DD",
"!	c #332627",
"~	c #D9D9D9",
"{	c #928A8C",
"]	c #F2F2F2",
"^	c #5C2E00",
"/	c #FFFFFF",
"(	c #964F00",
"_	c #32522F",
":	c #596943",
"<	c #509C00",
"[	c #2A6B13",
"}	c #140C1C",
"|	c #8A816C",
"1	c #2E6E21",
"2	c #87CB00",
"3	c #3D742A",
"4	c #545456",
"5	c #4B613C",
"6	c #323234",
"7	c #444444",
"8	c #6D6D6E",
"9	c #8B5E4A",
"0	c #B89D92",
"a	c #9F8781",
"b	c #A77E5D",
"c	c #77584A",
"                     ..         ",
" +@@@@@@.#$#..#$$#...##.%&%%%&& ",
" @@%@%@.#*$.#$*$#.#$$$$.&&&%%&& ",
" &%@%&%.$*#$$*$#.###$$$#.&&&&&= ",
" %%%&%.#$$#$$$#$**$$#$$#.&%%&&= ",
" @@%%.####$#$#$$$$$#####..%%&%& ",
" @%%.#$#$$#$$###$#$**$$#.#.&&%& ",
" @%&.#$#$$$$$$#$#$$$$$#.$$.%%%& ",
" @%%.$$-#$*#$*#$$#$$##$$$#.&%%& ",
" @%%.#$;>#*##$*#*$#$$$#$##.%&%& ",
" +%%%.#>>#$#>#$#$*#$**$##.&%%&& ",
" +@@%%,>>>#'''###$#$$##..&&&&&& ",
" +@@%%,>>',,,'$$##.######.&==&& ",
" @@@%%,>'')!~'$$#>'#$$$#.&&=&%& ",
" @@@@%,>''{!]''$>-'#$$#..&&&%%& ",
" %%@@@,;''^^/''$'->#$#.##.&&&&& ",
" %%@@@,->'(('''$>;,#####.&&&&&& ",
" @@@@%%,;>'''''>;;-###..&%&&%&= ",
" @@@%%%%,-;;>>>;;-##.._&%&&&%&= ",
" @@@%%@%:,,,,,,,,<..<<[_&&%&%&} ",
" %@%%%%|_1<222<<1_1<<1_&&&&&&=} ",
" @@%%&&%_13<<<14'';1_5%&&%&&=}} ",
" @@@%&&%%6788884'';,%&&=&&&&}=& ",
" @@%%%%%%674884,;>>,%&&=&&=}}&% ",
" %%&&&%%%6{9999,00a,&==&&=}=%%& ",
" %%&%%@%&674844,bb9,&&&&}}=%&%& ",
" %%&%%@%&&67484,bb9,&&&}=&@&&&& ",
" @%%@@@@&&%67884,,,%&&}=&@&&&== ",
" @@%%%%%&&%%,900a,%&&=}%@&&&&== ",
" %%%@@@%%&&%,9b9c,%&=}&@&&%&&&& ",
" %%%%%%%%%%%,bb9c,&=}=%%&&&=&&= ",
"             ,,,,               "};
