/* XPM */
static char * floor_xpm[] = {
"32 32 7 1",
" 	c None",
".	c #D2AA99",
"+	c #8595A1",
"@	c #757161",
"#	c #4E4A4E",
"$	c #442434",
"%	c #140C1C",
"                                ",
" .+++++++++++@@@+++@@@@@@#@@@## ",
" ++@+@++@##@@@@############@@## ",
" #@+@#@@@#@@#@##@@####$$######$ ",
" @@@#@+@+@@#@@##@@###$##@#@@##$ ",
" ++@@+@@@$#@@@######$###@#@@#@# ",
" +@@@@@@@##@@@##@###$##@#####@# ",
" +@##@@@@@@@#@@##$###@@####@@@# ",
" +@@#@@@@#####@####@######@#@@# ",
" +@@#++@@@@@#$######%###@@@@#@# ",
" .@@@++@+@@@@#########@####@@## ",
" .++@@@@@##@@@@#$$#$$##%####### ",
" .++@@@@@##@@####$#$$######$$## ",
" +++@@@#@@@@@@##@@#####@###$#@# ",
" ++++@@@@@@@@@#@##$#########@@# ",
" @@+++@+#@@@###@##$#@########## ",
" @@+++@#$@@@@###$$###$##%###### ",
" ++++@@@@@@@@@#########%#@##@#$ ",
" +++@@@@@@##@@##@@@#@###@###@#$ ",
" +++@@+@@@##@####@@##$$###@#@#% ",
" @+@@@@@#####################$% ",
" ++@@##@##@##########@@##@##$%% ",
" +++@##@@#@@@@##@@##@##$####%$# ",
" ++@@@@@@###@@##@@##@##$##$%%#@ ",
" @@###@@@#@##@####@##$$##$%$@@# ",
" @@#@@+@###$#@####@#####%%$@#@# ",
" @@#@@+@##@@@@@@$######%$#+#### ",
" +@@++++##@@@@#@##@@##%$#+###$$ ",
" ++@@@@@##@@@@#@##@##$%@+####$$ ",
" @@@+++@@##@++@@#@@#$%#+##@#### ",
" @@@@@@@@@@@++@####$%$@@###$##$ ",
"                                "};
