/* XPM */
static char * wall_xpm[] = {
"32 32 4 1",
" 	c #442434",
".	c #140C1C",
"+	c #4E4A4E",
"@	c #757161",
"              ..+             ..",
" +++++ +   ++ ..@  +++   ++++ ..",
"  ++++ ++  +++..@ ++++  ++@++ ..",
"  ++@++++ +++ ..@++@@++ +++++ ..",
"   ++++++ ++++..@ +@@++ +++++ ..",
"   ++@@+++++++..@++++++ +++++ ..",
"    +@@++ ++++..@++@+++++++++ ..",
"    ++++++++++..@++++++ +++++ ..",
" ..  +@+++++++..@++++++++++++ ..",
" ..  +++++++++..@@+@++++++++  ..",
"      ++++++++..@@+++++++++++ ..",
".  .  ++++  + ..@++++++++ +   ..",
" .     +++  ++..@++++++++++   ..",
"  .    ++++++ ..+++++++       ..",
".  . .  +++   .. ++          ...",
"................................",
"................................",
" +++++++ +@@@@@@@@@@@@@@@@@@+...",
"   ++ +++ ++++@@++@+++@+@@@@+...",
".      +  +++++@++++++@++@@@+...",
"   .       ++++++++++++++@+@+...",
"..     +   ++ +@++++ ++++++@+...",
"....        ++++++ +  +++@+++...",
".. . .      + ++ +++  +++++++...",
".........  .     + +   +++   ...",
".... .  .. ..  + + +    ++ + ...",
"......  .. ..           +    ...",
"..............   +  . .      ...",
".......... ...          +   ....",
"...............     ...    . ...",
"................................",
"................................"};
