/* XPM */
static char * exit_xpm[] = {
"32 32 12 1",
" 	c None",
".	c #4E4A4E",
"+	c #140C1C",
"@	c #346524",
"#	c #442434",
"$	c #757161",
"%	c #30346D",
"&	c #D04648",
"*	c #6DC2CA",
"=	c #D2AA99",
"-	c #8595A1",
";	c #DEEED6",
"                                ",
" .............................. ",
" .+++++++++++++++++++++++++++.@ ",
" .++##+++++##+++++##+++++##++.$ ",
" .+#..#..+#..#..+#..#..+#..#..$ ",
" .+#..#..+#..#..+#..#..+#..#..$ ",
" .++##+++++##+++++##+++++##++.$ ",
" .+++++++++++++++++++++++++++.$ ",
" .++..+++++..+++++..+++++..++.$ ",
" .++..+++++..+++++..+++++..++.$ ",
" .++..+++++$$+++++$$+++++..++.$ ",
" .++##+++++##+++++##+++++##++.$ ",
" .+#..#..$#$$#$$$#$$#$..#..#..$ ",
" .+#..#..$#$$#$$$#$$#$..#..#..$ ",
" .++##+++++##+++++##+++++##++.$ ",
" .+++++++++%%+++++%%+++++++++.$ ",
" .++..+++++..+#&#+..+#&#+..++.$ ",
" .++..+++++..+++++..+++++..++.$ ",
" .++##+++++##+++++##+++++##++.$ ",
" .+#..#..$#$$#$$$#$$#$..#..#..$ ",
" .+#..#..$#$$#$$$#$$#$..#..#..$ ",
" .++##+++++##+++++##+++++##++.$ ",
" .+++++++++%%+++++%%+++++++++.$ ",
" .++..+++++..+++++..+++++..++.$ ",
" .++..+++++..+++++..+++++..++.$ ",
" .++##+++++##+++++##+++++##++.$ ",
" .+#..#..+#..#..+#..#..+#..#..$ ",
" .+#..#..+#..#..+#..#..+#..#..$ ",
" .++##+++++##+++++##+++++##++.* ",
" ............................@= ",
" .@$$$$$$$$$$$$$$$$$$$$$$$$-*=; ",
"                                "};
